<svg width="325" height="120" viewBox="0 0 325 120" fill="none" xmlns="http://www.w3.org/2000/svg">
<rect width="325" height="120" rx="20" fill="url(#paint0_linear_405_37)"/>
<path d="M33.418 38.9961V23.332C32.5716 23.319 31.9466 23.1302 31.543 22.7656C31.1393 22.388 30.9375 21.9062 30.9375 21.3203C30.9375 20.7214 31.1393 20.2396 31.543 19.875C31.9596 19.4974 32.6497 19.3086 33.6133 19.3086L41.9922 19.3281C43.2943 19.3281 44.5638 19.569 45.8008 20.0508C47.0508 20.5326 48.0534 21.1445 48.8086 21.8867C49.3815 22.4466 49.974 23.2148 50.5859 24.1914C51.2109 25.168 51.6797 26.138 51.9922 27.1016C52.3047 28.0651 52.4609 29.2435 52.4609 30.6367V32.5508C52.4609 34.2435 52.1745 35.7474 51.6016 37.0625C51.0286 38.3646 50.2734 39.4323 49.3359 40.2656C48.4115 41.0859 47.5391 41.6914 46.7188 42.082C45.4167 42.694 43.7305 43 41.6602 43H33.6133C32.6497 43 31.9596 42.8177 31.543 42.4531C31.1393 42.0755 30.9375 41.5872 30.9375 40.9883C30.9375 40.4023 31.1393 39.9206 31.543 39.543C31.9596 39.1654 32.5846 38.9831 33.418 38.9961ZM37.4219 38.9961H41.6797C43.2682 38.9961 44.4661 38.7682 45.2734 38.3125C46.3281 37.7135 47.1224 36.9518 47.6562 36.0273C48.1901 35.1029 48.457 33.9049 48.457 32.4336V30.5391C48.457 29.276 48.2161 28.1693 47.7344 27.2188C46.9792 25.7344 46.1263 24.7188 45.1758 24.1719C44.2383 23.612 43.0599 23.332 41.6406 23.332H37.4219V38.9961ZM76.7969 34.4648C76.7969 36.0013 76.3672 37.4922 75.5078 38.9375C74.6615 40.3698 73.3919 41.5156 71.6992 42.375C70.0195 43.2214 68.2617 43.6445 66.4258 43.6445C64.6029 43.6445 62.8581 43.2279 61.1914 42.3945C59.5247 41.5482 58.2552 40.4023 57.3828 38.957C56.5104 37.5117 56.0742 36.0013 56.0742 34.4258C56.0742 32.8242 56.5169 31.2552 57.4023 29.7188C58.2878 28.1693 59.5573 26.9518 61.2109 26.0664C62.8776 25.181 64.6159 24.7383 66.4258 24.7383C68.2487 24.7383 70 25.194 71.6797 26.1055C73.3724 27.0039 74.6484 28.2214 75.5078 29.7578C76.3672 31.2812 76.7969 32.8503 76.7969 34.4648ZM72.793 34.4844C72.793 33.1953 72.3307 32.0104 71.4062 30.9297C70.1432 29.4714 68.4831 28.7422 66.4258 28.7422C64.6159 28.7422 63.1055 29.3216 61.8945 30.4805C60.6836 31.6393 60.0781 32.9805 60.0781 34.5039C60.0781 35.7539 60.6901 36.9258 61.9141 38.0195C63.138 39.1003 64.6419 39.6406 66.4258 39.6406C68.2227 39.6406 69.7331 39.1003 70.957 38.0195C72.181 36.9258 72.793 35.7474 72.793 34.4844ZM90.4492 35.6172L87.6758 43H83.9062L80.5469 29.2695C79.8177 29.2305 79.2643 29.0286 78.8867 28.6641C78.5221 28.2865 78.3398 27.8177 78.3398 27.2578C78.3398 26.6719 78.5417 26.1966 78.9453 25.832C79.362 25.4544 80.0521 25.2656 81.0156 25.2656H84.7461C85.7096 25.2656 86.3932 25.4544 86.7969 25.832C87.2135 26.1966 87.4219 26.6784 87.4219 27.2773C87.4219 27.8763 87.1875 28.3841 86.7188 28.8008C86.3672 29.1133 85.6771 29.2695 84.6484 29.2695L86.1719 35.6172L88.6523 29.1133H92.207L94.707 35.6172L96.2695 29.2695C95.2799 29.2695 94.6289 29.1719 94.3164 28.9766C93.6914 28.5729 93.3789 28 93.3789 27.2578C93.3789 26.6719 93.5807 26.1966 93.9844 25.832C94.401 25.4544 95.0911 25.2656 96.0547 25.2656H99.8242C100.788 25.2656 101.471 25.4544 101.875 25.832C102.292 26.1966 102.5 26.6784 102.5 27.2773C102.5 27.8112 102.318 28.2669 101.953 28.6445C101.602 29.0091 101.074 29.2174 100.371 29.2695L97.0898 43H93.3789L90.4492 35.6172ZM110.391 25.2656V26.6133C111.12 25.9883 111.921 25.5195 112.793 25.207C113.678 24.8945 114.635 24.7383 115.664 24.7383C118.034 24.7383 119.909 25.474 121.289 26.9453C122.383 28.1172 122.93 29.6536 122.93 31.5547V38.9961C123.776 38.9961 124.401 39.1849 124.805 39.5625C125.208 39.9271 125.41 40.4089 125.41 41.0078C125.41 41.5938 125.202 42.0755 124.785 42.4531C124.382 42.8177 123.698 43 122.734 43H119.121C118.158 43 117.467 42.8177 117.051 42.4531C116.647 42.0755 116.445 41.5872 116.445 40.9883C116.445 40.4023 116.647 39.9271 117.051 39.5625C117.454 39.1849 118.079 38.9961 118.926 38.9961V31.4375C118.926 30.5651 118.691 29.9271 118.223 29.5234C117.611 29.0026 116.693 28.7422 115.469 28.7422C114.544 28.7422 113.73 28.9245 113.027 29.2891C112.337 29.6406 111.458 30.3958 110.391 31.5547V38.9961C111.419 38.9961 112.083 39.0938 112.383 39.2891C113.021 39.6797 113.34 40.2526 113.34 41.0078C113.34 41.5938 113.132 42.0755 112.715 42.4531C112.311 42.8177 111.628 43 110.664 43H106.113C105.15 43 104.46 42.8177 104.043 42.4531C103.639 42.0755 103.438 41.5872 103.438 40.9883C103.438 40.2591 103.75 39.6927 104.375 39.2891C104.688 39.0938 105.358 38.9961 106.387 38.9961V29.2695C105.54 29.2695 104.915 29.0807 104.512 28.7031C104.108 28.3255 103.906 27.8438 103.906 27.2578C103.906 26.6719 104.108 26.1966 104.512 25.832C104.928 25.4544 105.618 25.2656 106.582 25.2656H110.391ZM140.469 17.668V38.9961H145.273C146.237 38.9961 146.921 39.1849 147.324 39.5625C147.741 39.9271 147.949 40.4089 147.949 41.0078C147.949 41.5938 147.741 42.0755 147.324 42.4531C146.921 42.8177 146.237 43 145.273 43H131.66C130.697 43 130.007 42.8177 129.59 42.4531C129.186 42.0755 128.984 41.5872 128.984 40.9883C128.984 40.4023 129.186 39.9271 129.59 39.5625C130.007 39.1849 130.697 38.9961 131.66 38.9961H136.465V21.6719H133.242C132.292 21.6719 131.608 21.4896 131.191 21.125C130.775 20.7474 130.566 20.2591 130.566 19.6602C130.566 19.0742 130.768 18.599 131.172 18.2344C131.589 17.8568 132.279 17.668 133.242 17.668H140.469ZM172.891 34.4648C172.891 36.0013 172.461 37.4922 171.602 38.9375C170.755 40.3698 169.486 41.5156 167.793 42.375C166.113 43.2214 164.355 43.6445 162.52 43.6445C160.697 43.6445 158.952 43.2279 157.285 42.3945C155.618 41.5482 154.349 40.4023 153.477 38.957C152.604 37.5117 152.168 36.0013 152.168 34.4258C152.168 32.8242 152.611 31.2552 153.496 29.7188C154.382 28.1693 155.651 26.9518 157.305 26.0664C158.971 25.181 160.71 24.7383 162.52 24.7383C164.342 24.7383 166.094 25.194 167.773 26.1055C169.466 27.0039 170.742 28.2214 171.602 29.7578C172.461 31.2812 172.891 32.8503 172.891 34.4648ZM168.887 34.4844C168.887 33.1953 168.424 32.0104 167.5 30.9297C166.237 29.4714 164.577 28.7422 162.52 28.7422C160.71 28.7422 159.199 29.3216 157.988 30.4805C156.777 31.6393 156.172 32.9805 156.172 34.5039C156.172 35.7539 156.784 36.9258 158.008 38.0195C159.232 39.1003 160.736 39.6406 162.52 39.6406C164.316 39.6406 165.827 39.1003 167.051 38.0195C168.275 36.9258 168.887 35.7474 168.887 34.4844ZM190.117 43V42.0625C189.115 42.5964 188.008 42.9935 186.797 43.2539C185.586 43.5273 184.486 43.6641 183.496 43.6641C181.348 43.6641 179.603 43.0977 178.262 41.9648C176.921 40.819 176.25 39.556 176.25 38.1758C176.25 36.4961 177.103 34.9401 178.809 33.5078C180.527 32.0625 182.897 31.3398 185.918 31.3398C187.129 31.3398 188.529 31.4701 190.117 31.7305V30.7734C190.117 30.1745 189.857 29.6862 189.336 29.3086C188.828 28.931 187.852 28.7422 186.406 28.7422C185.221 28.7422 183.685 28.9766 181.797 29.4453C181.094 29.6146 180.547 29.6992 180.156 29.6992C179.622 29.6992 179.167 29.5104 178.789 29.1328C178.424 28.7422 178.242 28.2474 178.242 27.6484C178.242 27.3099 178.307 27.0169 178.438 26.7695C178.568 26.5221 178.75 26.3268 178.984 26.1836C179.219 26.0273 179.707 25.8451 180.449 25.6367C181.439 25.3633 182.448 25.1484 183.477 24.9922C184.505 24.8229 185.436 24.7383 186.27 24.7383C188.757 24.7383 190.684 25.2786 192.051 26.3594C193.431 27.4271 194.121 28.8919 194.121 30.7539V38.9961H194.805C195.768 38.9961 196.452 39.1849 196.855 39.5625C197.272 39.9271 197.48 40.4089 197.48 41.0078C197.48 41.5938 197.272 42.0755 196.855 42.4531C196.452 42.8177 195.768 43 194.805 43H190.117ZM190.117 35.832C188.516 35.5195 187.038 35.3633 185.684 35.3633C184.056 35.3633 182.656 35.7604 181.484 36.5547C180.755 37.0625 180.391 37.5768 180.391 38.0977C180.391 38.4753 180.566 38.7812 180.918 39.0156C181.569 39.4453 182.461 39.6602 183.594 39.6602C184.557 39.6602 185.645 39.4714 186.855 39.0938C188.079 38.7161 189.167 38.2018 190.117 37.5508V35.832ZM219.727 17.668V38.9961H220.41C221.361 38.9961 222.044 39.1849 222.461 39.5625C222.878 39.9271 223.086 40.4089 223.086 41.0078C223.086 41.5938 222.878 42.0755 222.461 42.4531C222.057 42.8177 221.374 43 220.41 43H215.723V42.0234C214.811 42.5573 213.854 42.9609 212.852 43.2344C211.862 43.5078 210.833 43.6445 209.766 43.6445C206.758 43.6445 204.336 42.7786 202.5 41.0469C200.664 39.3021 199.746 37.1341 199.746 34.543C199.746 31.8346 200.71 29.5234 202.637 27.6094C204.564 25.6953 206.914 24.7383 209.688 24.7383C210.729 24.7383 211.751 24.901 212.754 25.2266C213.757 25.5391 214.746 26.0143 215.723 26.6523V21.6719H215.039C214.076 21.6719 213.385 21.4896 212.969 21.125C212.565 20.7474 212.363 20.2656 212.363 19.6797C212.363 19.0807 212.565 18.599 212.969 18.2344C213.385 17.8568 214.076 17.668 215.039 17.668H219.727ZM215.723 34.6602C215.723 33.0065 215.143 31.6068 213.984 30.4609C212.826 29.3151 211.406 28.7422 209.727 28.7422C208.06 28.7422 206.647 29.3151 205.488 30.4609C204.329 31.6068 203.75 32.987 203.75 34.6016C203.75 36.0729 204.271 37.2839 205.312 38.2344C206.354 39.1719 207.826 39.6406 209.727 39.6406C211.615 39.6406 213.086 39.1719 214.141 38.2344C215.195 37.2839 215.723 36.0924 215.723 34.6602ZM264.863 20.3438C265.111 20.0052 265.378 19.7513 265.664 19.582C265.964 19.4128 266.283 19.3281 266.621 19.3281C267.207 19.3281 267.682 19.5299 268.047 19.9336C268.424 20.3372 268.613 21.0208 268.613 21.9844V25.3828C268.613 26.3464 268.424 27.0365 268.047 27.4531C267.682 27.8568 267.207 28.0586 266.621 28.0586C266.087 28.0586 265.658 27.9089 265.332 27.6094C265.007 27.3099 264.766 26.75 264.609 25.9297C264.518 25.3828 264.336 24.9596 264.062 24.6602C263.529 24.0742 262.78 23.6055 261.816 23.2539C260.866 22.9023 259.909 22.7266 258.945 22.7266C257.747 22.7266 256.647 22.987 255.645 23.5078C254.642 24.0286 253.757 24.875 252.988 26.0469C252.22 27.2188 251.836 28.612 251.836 30.2266V32.8242C251.836 34.7513 252.533 36.3594 253.926 37.6484C255.332 38.9375 257.279 39.582 259.766 39.582C261.25 39.582 262.507 39.3802 263.535 38.9766C264.134 38.7422 264.772 38.2799 265.449 37.5898C265.866 37.1732 266.191 36.9062 266.426 36.7891C266.66 36.6589 266.927 36.5938 267.227 36.5938C267.76 36.5938 268.229 36.7956 268.633 37.1992C269.036 37.6029 269.238 38.0781 269.238 38.625C269.238 39.1719 268.965 39.7578 268.418 40.3828C267.624 41.2943 266.602 42.0104 265.352 42.5312C263.672 43.2344 261.816 43.5859 259.785 43.5859C257.415 43.5859 255.28 43.0977 253.379 42.1211C251.842 41.3398 250.534 40.1094 249.453 38.4297C248.372 36.737 247.832 34.8945 247.832 32.9023V30.1875C247.832 28.1042 248.314 26.1641 249.277 24.3672C250.254 22.5573 251.602 21.1641 253.32 20.1875C255.039 19.2109 256.862 18.7227 258.789 18.7227C259.948 18.7227 261.029 18.8594 262.031 19.1328C263.047 19.3932 263.991 19.7969 264.863 20.3438ZM282.598 37.1602L288.398 23.332H287.48C286.517 23.332 285.827 23.1497 285.41 22.7852C285.007 22.4076 284.805 21.9193 284.805 21.3203C284.805 20.7214 285.007 20.2396 285.41 19.875C285.827 19.4974 286.517 19.3086 287.48 19.3086L292.852 19.3281C293.815 19.3281 294.499 19.5104 294.902 19.875C295.319 20.2396 295.527 20.7214 295.527 21.3203C295.527 22.0365 295.215 22.6029 294.59 23.0195C294.29 23.2279 293.678 23.332 292.754 23.332L284.531 43H280.684L272.48 23.332C271.543 23.332 270.924 23.2279 270.625 23.0195C270 22.6159 269.688 22.0495 269.688 21.3203C269.688 20.7214 269.896 20.2396 270.312 19.875C270.716 19.4974 271.4 19.3086 272.363 19.3086L277.773 19.3281C278.724 19.3281 279.401 19.5104 279.805 19.875C280.221 20.2396 280.43 20.7214 280.43 21.3203C280.43 21.9193 280.228 22.4076 279.824 22.7852C279.421 23.1497 278.737 23.332 277.773 23.332H276.836L282.598 37.1602Z" fill="white"/>
<path d="M183.5 89.375V98.75H141.5V89.375H134.5V98.75C134.5 102.188 137.65 105 141.5 105H183.5C187.35 105 190.5 102.188 190.5 98.75V89.375H183.5ZM180 76.875L175.065 72.4688L166 80.5313V55H159V80.5313L149.935 72.4688L145 76.875L162.5 92.5L180 76.875Z" fill="white"/>
<defs>
<linearGradient id="paint0_linear_405_37" x1="162.5" y1="8.07146e-08" x2="162" y2="103" gradientUnits="userSpaceOnUse">
<stop stop-color="#00D1FF"/>
<stop offset="1" stop-color="#050206" stop-opacity="0"/>
</linearGradient>
</defs>
</svg>
